Topmarks-Bold-2.ufo
<glyph name="exclam" format="1">
  <advance width="782"/>
  <unicode hex="0021"/>
  <outline>
    <contour>
      <point x="319" y="498" type="line"/>
      <point x="228" y="1456" type="line"/>
      <point x="542" y="1456" type="line"/>
      <point x="448" y="498" type="line"/>
    </contour>
    <contour>
      <point x="391" y="-12" type="curve" smooth="yes"/>
      <point x="295" y="-12"/>
      <point x="226" y="54"/>
      <point x="226" y="149" type="curve" smooth="yes"/>
      <point x="226" y="241"/>
      <point x="295" y="306"/>
      <point x="391" y="306" type="curve" smooth="yes"/>
      <point x="487" y="306"/>
      <point x="556" y="241"/>
      <point x="556" y="146" type="curve" smooth="yes"/>
      <point x="556" y="52"/>
      <point x="487" y="-12"/>
    </contour>
  </outline>
</glyph>
<glyph name="quotedbl" format="1">
  <advance width="923"/>
  <unicode hex="0022"/>
  <outline>
    <contour>
      <point x="224" y="884" type="line"/>
      <point x="182" y="1456" type="line"/>
      <point x="403" y="1456" type="line"/>
      <point x="373" y="884" type="line"/>
    </contour>
    <contour>
      <point x="562" y="884" type="line"/>
      <point x="520" y="1456" type="line"/>
      <point x="741" y="1456" type="line"/>
      <point x="711" y="884" type="line"/>
    </contour>
  </outline>
</glyph>
<glyph name="ampersand" format="1">
  <advance width="1525"/>
  <unicode hex="0026"/>
  <outline>
    <contour>
      <point x="586" y="910" type="curve"/>
      <point x="675" y="961"/>
      <point x="773" y="1067"/>
      <point x="773" y="1174" type="curve" smooth="yes"/>
      <point x="773" y="1268"/>
      <point x="701" y="1315"/>
      <point x="614" y="1315" type="curve" smooth="yes"/>
      <point x="527" y="1315"/>
      <point x="447" y="1269"/>
      <point x="447" y="1174" type="curve" smooth="yes"/>
      <point x="447" y="1063"/>
      <point x="523" y="976"/>
    </contour>
    <contour>
      <point x="902" y="293" type="curve"/>
      <point x="517" y="712" type="line"/>
      <point x="380" y="616"/>
      <point x="311" y="538"/>
      <point x="311" y="395" type="curve" smooth="yes"/>
      <point x="311" y="221"/>
      <point x="437" y="140"/>
      <point x="580" y="140" type="curve" smooth="yes"/>
      <point x="695" y="140"/>
      <point x="822" y="193"/>
    </contour>
    <contour>
      <point x="98" y="386" type="curve" smooth="yes"/>
      <point x="98" y="602"/>
      <point x="253" y="731"/>
      <point x="419" y="827" type="curve"/>
      <point x="335" y="918"/>
      <point x="255" y="1010"/>
      <point x="255" y="1162" type="curve" smooth="yes"/>
      <point x="255" y="1361"/>
      <point x="419" y="1483"/>
      <point x="604" y="1483" type="curve" smooth="yes"/>
      <point x="805" y="1483"/>
      <point x="973" y="1376"/>
      <point x="973" y="1191" type="curve" smooth="yes"/>
      <point x="973" y="989"/>
      <point x="803" y="874"/>
      <point x="669" y="799" type="curve"/>
      <point x="1001" y="436" type="line"/>
      <point x="1094" y="563"/>
      <point x="1143" y="746"/>
      <point x="1143" y="919" type="curve"/>
      <point x="1335" y="871" type="line"/>
      <point x="1326" y="632"/>
      <point x="1248" y="431"/>
      <point x="1137" y="289" type="curve"/>
      <point x="1210" y="214"/>
      <point x="1251" y="163"/>
      <point x="1446" y="122" type="curve"/>
      <point x="1369" y="-36" type="line"/>
      <point x="1216" y="-14"/>
      <point x="1092" y="72"/>
      <point x="1009" y="159" type="curve"/>
      <point x="898" y="29"/>
      <point x="726" y="-37"/>
      <point x="562" y="-37" type="curve" smooth="yes"/>
      <point x="322" y="-37"/>
      <point x="98" y="103"/>
    </contour>
  </outline>
</glyph>
<glyph name="parenright" format="1">
  <advance width="704"/>
  <unicode hex="0029"/>
  <outline>
    <contour>
      <point x="86" y="-244" type="line"/>
      <point x="260" y="128"/>
      <point x="344" y="335"/>
      <point x="344" y="642" type="curve" smooth="yes"/>
      <point x="344" y="959"/>
      <point x="252" y="1175"/>
      <point x="75" y="1564" type="curve"/>
      <point x="302" y="1564" type="line"/>
      <point x="509" y="1177"/>
      <point x="616" y="961"/>
      <point x="616" y="645" type="curve" smooth="yes"/>
      <point x="616" y="337"/>
      <point x="516" y="128"/>
      <point x="313" y="-244" type="curve"/>
    </contour>
  </outline>
</glyph>
<glyph name="comma" format="1">
  <advance width="612"/>
  <unicode hex="002C"/>
  <outline>
    <contour>
      <point x="138" y="-297" type="line"/>
      <point x="228" y="255" type="line"/>
      <point x="483" y="255" type="line"/>
      <point x="292" y="-297" type="line"/>
    </contour>
  </outline>
</glyph>
<glyph name="hyphen" format="1">
  <advance width="1163"/>
  <unicode hex="002D"/>
  <outline>
    <contour>
      <point x="192" y="640" type="line"/>
      <point x="192" y="837" type="line"/>
      <point x="971" y="837" type="line"/>
      <point x="971" y="640" type="line"/>
    </contour>
  </outline>
</glyph>
<glyph name="period" format="1">
  <advance width="699"/>
  <unicode hex="002E"/>
  <outline>
    <contour>
      <point x="350" y="-12" type="curve" smooth="yes"/>
      <point x="254" y="-12"/>
      <point x="185" y="54"/>
      <point x="185" y="149" type="curve" smooth="yes"/>
      <point x="185" y="241"/>
      <point x="254" y="306"/>
      <point x="350" y="306" type="curve" smooth="yes"/>
      <point x="446" y="306"/>
      <point x="515" y="241"/>
      <point x="515" y="146" type="curve" smooth="yes"/>
      <point x="515" y="52"/>
      <point x="446" y="-12"/>
    </contour>
  </outline>
</glyph>
<glyph name="zero" format="1">
  <advance width="1282"/>
  <unicode hex="0030"/>
  <outline>
    <contour>
      <point x="640" y="-24" type="curve" smooth="yes"/>
      <point x="293" y="-24"/>
      <point x="107" y="290"/>
      <point x="107" y="728" type="curve" smooth="yes"/>
      <point x="107" y="1172"/>
      <point x="293" y="1480"/>
      <point x="640" y="1480" type="curve" smooth="yes"/>
      <point x="989" y="1480"/>
      <point x="1175" y="1172"/>
      <point x="1175" y="728" type="curve" smooth="yes"/>
      <point x="1175" y="290"/>
      <point x="989" y="-24"/>
    </contour>
    <contour>
      <point x="639" y="184" type="curve" smooth="yes"/>
      <point x="834" y="184"/>
      <point x="937" y="413"/>
      <point x="937" y="731" type="curve" smooth="yes"/>
      <point x="937" y="1055"/>
      <point x="834" y="1272"/>
      <point x="639" y="1272" type="curve" smooth="yes"/>
      <point x="441" y="1272"/>
      <point x="345" y="1055"/>
      <point x="345" y="731" type="curve" smooth="yes"/>
      <point x="345" y="413"/>
      <point x="441" y="184"/>
    </contour>
  </outline>
</glyph>
<glyph name="one" format="1">
  <advance width="1282"/>
  <unicode hex="0031"/>
  <outline>
    <contour>
      <point x="516" y="0" type="line"/>
      <point x="516" y="1456" type="line"/>
      <point x="766" y="1456" type="line"/>
      <point x="766" y="0" type="line"/>
    </contour>
  </outline>
</glyph>
<glyph name="three" format="1">
  <advance width="1282"/>
  <unicode hex="0033"/>
  <outline>
    <contour>
      <point x="627" y="-24" type="curve" smooth="yes"/>
      <point x="446" y="-24"/>
      <point x="320" y="17"/>
      <point x="184" y="112" type="curve"/>
      <point x="276" y="288" type="line"/>
      <point x="396" y="210"/>
      <point x="508" y="184"/>
      <point x="623" y="184" type="curve" smooth="yes"/>
      <point x="767" y="184"/>
      <point x="867" y="279"/>
      <point x="867" y="410" type="curve" smooth="yes"/>
      <point x="867" y="619"/>
      <point x="714" y="652"/>
      <point x="540" y="652" type="curve" smooth="yes"/>
      <point x="435" y="652" type="line"/>
      <point x="435" y="848" type="line"/>
      <point x="526" y="848" type="line" smooth="yes"/>
      <point x="645" y="848"/>
      <point x="823" y="872"/>
      <point x="823" y="1060" type="curve" smooth="yes"/>
      <point x="823" y="1207"/>
      <point x="712" y="1272"/>
      <point x="597" y="1272" type="curve" smooth="yes"/>
      <point x="498" y="1272"/>
      <point x="367" y="1242"/>
      <point x="283" y="1160" type="curve"/>
      <point x="171" y="1317" type="line"/>
      <point x="300" y="1437"/>
      <point x="447" y="1480"/>
      <point x="602" y="1480" type="curve" smooth="yes"/>
      <point x="836" y="1480"/>
      <point x="1060" y="1358"/>
      <point x="1060" y="1090" type="curve" smooth="yes"/>
      <point x="1060" y="894"/>
      <point x="927" y="795"/>
      <point x="834" y="768" type="curve"/>
      <point x="931" y="749"/>
      <point x="1103" y="658"/>
      <point x="1103" y="407" type="curve" smooth="yes"/>
      <point x="1103" y="132"/>
      <point x="884" y="-24"/>
    </contour>
  </outline>
</glyph>
<glyph name="four" format="1">
  <advance width="1282"/>
  <unicode hex="0034"/>
  <outline>
    <contour>
      <point x="982" y="868" type="line"/>
      <point x="982" y="518" type="line"/>
      <point x="1179" y="518" type="line"/>
      <point x="1179" y="327" type="line"/>
      <point x="982" y="327" type="line"/>
      <point x="982" y="0" type="line"/>
      <point x="772" y="0" type="line"/>
      <point x="772" y="327" type="line"/>
      <point x="154" y="327" type="line"/>
      <point x="154" y="504" type="line"/>
      <point x="520" y="1456" type="line"/>
      <point x="743" y="1456" type="line"/>
      <point x="415" y="518" type="line"/>
      <point x="772" y="518" type="line"/>
      <point x="772" y="868" type="line"/>
    </contour>
  </outline>
</glyph>
<glyph name="five" format="1">
  <advance width="1282"/>
  <unicode hex="0035"/>
  <outline>
    <contour>
      <point x="657" y="-24" type="curve" smooth="yes"/>
      <point x="484" y="-24"/>
      <point x="358" y="29"/>
      <point x="232" y="133" type="curve"/>
      <point x="322" y="322" type="line"/>
      <point x="413" y="240"/>
      <point x="506" y="184"/>
      <point x="642" y="184" type="curve" smooth="yes"/>
      <point x="799" y="184"/>
      <point x="899" y="313"/>
      <point x="899" y="459" type="curve" smooth="yes"/>
      <point x="899" y="639"/>
      <point x="793" y="731"/>
      <point x="680" y="733" type="curve"/>
      <point x="607" y="733"/>
      <point x="542" y="717"/>
      <point x="475" y="644" type="curve"/>
      <point x="300" y="644" type="line"/>
      <point x="300" y="1456" type="line"/>
      <point x="1032" y="1456" type="line"/>
      <point x="1032" y="1257" type="line"/>
      <point x="522" y="1257" type="line"/>
      <point x="508" y="851" type="line"/>
      <point x="550" y="885"/>
      <point x="612" y="929"/>
      <point x="735" y="929" type="curve" smooth="yes"/>
      <point x="924" y="929"/>
      <point x="1141" y="806"/>
      <point x="1141" y="466" type="curve" smooth="yes"/>
      <point x="1141" y="138"/>
      <point x="907" y="-24"/>
    </contour>
  </outline>
</glyph>
<glyph name="colon" format="1">
  <advance width="639"/>
  <unicode hex="003A"/>
  <outline>
    <contour>
      <point x="192" y="779" type="line"/>
      <point x="192" y="1026" type="line"/>
      <point x="447" y="1026" type="line"/>
      <point x="447" y="779" type="line"/>
    </contour>
    <contour>
      <point x="192" y="0" type="line"/>
      <point x="192" y="247" type="line"/>
      <point x="447" y="247" type="line"/>
      <point x="447" y="0" type="line"/>
    </contour>
  </outline>
</glyph>
<glyph name="semicolon" format="1">
  <advance width="627"/>
  <unicode hex="003B"/>
  <outline>
    <contour>
      <point x="136" y="-297" type="line"/>
      <point x="226" y="255" type="line"/>
      <point x="481" y="255" type="line"/>
      <point x="290" y="-297" type="line"/>
    </contour>
    <contour>
      <point x="226" y="779" type="line"/>
      <point x="226" y="1026" type="line"/>
      <point x="481" y="1026" type="line"/>
      <point x="481" y="779" type="line"/>
    </contour>
  </outline>
</glyph>
<glyph name="equal" format="1">
  <advance width="1210"/>
  <unicode hex="003D"/>
  <outline>
    <contour>
      <point x="193" y="450" type="line"/>
      <point x="193" y="620" type="line"/>
      <point x="1018" y="620" type="line"/>
      <point x="1018" y="450" type="line"/>
    </contour>
    <contour>
      <point x="192" y="853" type="line"/>
      <point x="192" y="1026" type="line"/>
      <point x="1018" y="1026" type="line"/>
      <point x="1018" y="853" type="line"/>
    </contour>
  </outline>
</glyph>
<glyph name="question" format="1">
  <advance width="1007"/>
  <unicode hex="003F"/>
  <outline>
    <contour>
      <point x="315" y="423" type="line"/>
      <point x="315" y="887"/>
      <point x="579" y="963"/>
      <point x="579" y="1109" type="curve" smooth="yes"/>
      <point x="579" y="1212"/>
      <point x="499" y="1252"/>
      <point x="405" y="1252" type="curve" smooth="yes"/>
      <point x="339" y="1252"/>
      <point x="248" y="1233"/>
      <point x="174" y="1205" type="curve"/>
      <point x="143" y="1416" type="line"/>
      <point x="246" y="1459"/>
      <point x="359" y="1480"/>
      <point x="459" y="1480" type="curve" smooth="yes"/>
      <point x="672" y="1480"/>
      <point x="856" y="1377"/>
      <point x="856" y="1137" type="curve" smooth="yes"/>
      <point x="856" y="781"/>
      <point x="486" y="776"/>
      <point x="429" y="423" type="curve"/>
    </contour>
    <contour>
      <point x="375" y="-12" type="curve" smooth="yes"/>
      <point x="279" y="-12"/>
      <point x="210" y="54"/>
      <point x="210" y="149" type="curve" smooth="yes"/>
      <point x="210" y="241"/>
      <point x="279" y="306"/>
      <point x="375" y="306" type="curve" smooth="yes"/>
      <point x="471" y="306"/>
      <point x="540" y="241"/>
      <point x="540" y="146" type="curve" smooth="yes"/>
      <point x="540" y="52"/>
      <point x="471" y="-12"/>
    </contour>
  </outline>
</glyph>
<glyph name="A" format="1">
  <advance width="1381"/>
  <unicode hex="0041"/>
  <outline>
    <contour>
      <point x="491" y="553" type="curve"/>
      <point x="885" y="553" type="line"/>
      <point x="821" y="774"/>
      <point x="755" y="992"/>
      <point x="689" y="1211" type="curve"/>
      <point x="623" y="992"/>
      <point x="557" y="772"/>
    </contour>
    <contour>
      <point x="37" y="0" type="line"/>
      <point x="575" y="1560" type="line"/>
      <point x="815" y="1560" type="line"/>
      <point x="1344" y="0" type="line"/>
      <point x="1059" y="0" type="line"/>
      <point x="950" y="355" type="line"/>
      <point x="424" y="355" type="line"/>
      <point x="311" y="0" type="line"/>
    </contour>
  </outline>
</glyph>
<glyph name="F" format="1">
  <advance width="1093"/>
  <unicode hex="0046"/>
  <outline>
    <contour>
      <point x="178" y="0" type="line"/>
      <point x="178" y="1560" type="line"/>
      <point x="1019" y="1560" type="line"/>
      <point x="1019" y="1360" type="line"/>
      <point x="428" y="1360" type="line"/>
      <point x="428" y="925" type="line"/>
      <point x="986" y="925" type="line"/>
      <point x="986" y="732" type="line"/>
      <point x="428" y="732" type="line"/>
      <point x="428" y="0" type="line"/>
    </contour>
  </outline>
</glyph>
<glyph name="H" format="1">
  <advance width="1525"/>
  <unicode hex="0048"/>
  <outline>
    <contour>
      <point x="178" y="0" type="line"/>
      <point x="178" y="1560" type="line"/>
      <point x="428" y="1560" type="line"/>
      <point x="428" y="910" type="line"/>
      <point x="1097" y="910" type="line"/>
      <point x="1097" y="1560" type="line"/>
      <point x="1347" y="1560" type="line"/>
      <point x="1347" y="0" type="line"/>
      <point x="1097" y="0" type="line"/>
      <point x="1097" y="695" type="line"/>
      <point x="428" y="695" type="line"/>
      <point x="428" y="0" type="line"/>
    </contour>
  </outline>
</glyph>
<glyph name="I" format="1">
  <advance width="934"/>
  <unicode hex="0049"/>
  <outline>
    <contour>
      <point x="766" y="0" type="line"/>
      <point x="168" y="0" type="line"/>
      <point x="168" y="182" type="line"/>
      <point x="342" y="182" type="line"/>
      <point x="342" y="1378" type="line"/>
      <point x="168" y="1378" type="line"/>
      <point x="168" y="1560" type="line"/>
      <point x="766" y="1560" type="line"/>
      <point x="766" y="1378" type="line"/>
      <point x="592" y="1378" type="line"/>
      <point x="592" y="182" type="line"/>
      <point x="766" y="182" type="line"/>
    </contour>
  </outline>
</glyph>
<glyph name="M" format="1">
  <advance width="1875"/>
  <unicode hex="004D"/>
  <outline>
    <contour>
      <point x="178" y="0" type="line"/>
      <point x="178" y="1560" type="line"/>
      <point x="471" y="1560" type="line"/>
      <point x="624" y="1251"/>
      <point x="782" y="947"/>
      <point x="931" y="633" type="curve"/>
      <point x="1076" y="951"/>
      <point x="1238" y="1250"/>
      <point x="1391" y="1560" type="curve"/>
      <point x="1683" y="1560" type="line"/>
      <point x="1683" y="0" type="line"/>
      <point x="1433" y="0" type="line"/>
      <point x="1433" y="1189" type="line"/>
      <point x="1328" y="955" type="line"/>
      <point x="985" y="293" type="line"/>
      <point x="872" y="293" type="line"/>
      <point x="532" y="967" type="line"/>
      <point x="428" y="1206" type="line"/>
      <point x="428" y="0" type="line"/>
    </contour>
  </outline>
</glyph>
<glyph name="P" format="1">
  <advance width="1262"/>
  <unicode hex="0050"/>
  <outline>
    <contour>
      <point x="428" y="866" type="line"/>
      <point x="638" y="866" type="line" smooth="yes"/>
      <point x="846" y="866"/>
      <point x="943" y="933"/>
      <point x="943" y="1119" type="curve" smooth="yes"/>
      <point x="943" y="1296"/>
      <point x="839" y="1360"/>
      <point x="620" y="1360" type="curve" smooth="yes"/>
      <point x="428" y="1360" type="line"/>
    </contour>
    <contour>
      <point x="178" y="0" type="line"/>
      <point x="178" y="1560" type="line"/>
      <point x="598" y="1560" type="line" smooth="yes"/>
      <point x="1011" y="1560"/>
      <point x="1199" y="1434"/>
      <point x="1199" y="1121" type="curve" smooth="yes"/>
      <point x="1199" y="793"/>
      <point x="1017" y="663"/>
      <point x="621" y="663" type="curve" smooth="yes"/>
      <point x="428" y="663" type="line"/>
      <point x="428" y="0" type="line"/>
    </contour>
  </outline>
</glyph>
<glyph name="U" format="1">
  <advance width="1490"/>
  <unicode hex="0055"/>
  <outline>
    <contour>
      <point x="754" y="-24" type="curve" smooth="yes"/>
      <point x="377" y="-24"/>
      <point x="160" y="208"/>
      <point x="160" y="547" type="curve" smooth="yes"/>
      <point x="160" y="1560" type="line"/>
      <point x="410" y="1560" type="line"/>
      <point x="410" y="536" type="line" smooth="yes"/>
      <point x="410" y="322"/>
      <point x="537" y="184"/>
      <point x="753" y="184" type="curve" smooth="yes"/>
      <point x="958" y="184"/>
      <point x="1081" y="319"/>
      <point x="1081" y="529" type="curve" smooth="yes"/>
      <point x="1081" y="1560" type="line"/>
      <point x="1330" y="1560" type="line"/>
      <point x="1330" y="558" type="line" smooth="yes"/>
      <point x="1330" y="213"/>
      <point x="1123" y="-24"/>
    </contour>
  </outline>
</glyph>
<glyph name="W" format="1">
  <advance width="2175"/>
  <unicode hex="0057"/>
  <outline>
    <contour>
      <point x="513" y="0" type="line"/>
      <point x="61" y="1560" type="line"/>
      <point x="316" y="1560" type="line"/>
      <point x="565" y="614" type="line"/>
      <point x="632" y="385" type="line"/>
      <point x="718" y="614" type="line"/>
      <point x="1013" y="1560" type="line"/>
      <point x="1175" y="1560" type="line"/>
      <point x="1469" y="610" type="line"/>
      <point x="1550" y="386" type="line"/>
      <point x="1622" y="614" type="line"/>
      <point x="1865" y="1560" type="line"/>
      <point x="2114" y="1560" type="line"/>
      <point x="1663" y="0" type="line"/>
      <point x="1442" y="0" type="line"/>
      <point x="1089" y="1155" type="line"/>
      <point x="734" y="0" type="line"/>
    </contour>
  </outline>
</glyph>
<glyph name="X" format="1">
  <advance width="1436"/>
  <unicode hex="0058"/>
  <outline>
    <contour>
      <point x="1093" y="0" type="line"/>
      <point x="718" y="603" type="line"/>
      <point x="330" y="0" type="line"/>
      <point x="56" y="0" type="line"/>
      <point x="595" y="803" type="line"/>
      <point x="105" y="1557" type="line"/>
      <point x="383" y="1557" type="line"/>
      <point x="742" y="971" type="line"/>
      <point x="1108" y="1557" type="line"/>
      <point x="1381" y="1557" type="line"/>
      <point x="865" y="770" type="line"/>
      <point x="1364" y="0" type="line"/>
    </contour>
  </outline>
</glyph>
<glyph name="bracketleft" format="1">
  <advance width="812"/>
  <unicode hex="005B"/>
  <outline>
    <contour>
      <point x="187" y="-204" type="line"/>
      <point x="187" y="1480" type="line"/>
      <point x="638" y="1480" type="line"/>
      <point x="638" y="1350" type="line"/>
      <point x="446" y="1350" type="line"/>
      <point x="446" y="-75" type="line"/>
      <point x="638" y="-75" type="line"/>
      <point x="638" y="-204" type="line"/>
    </contour>
  </outline>
</glyph>
<glyph name="bracketright" format="1">
  <advance width="811"/>
  <unicode hex="005D"/>
  <outline>
    <contour>
      <point x="174" y="-222" type="line"/>
      <point x="174" y="-93" type="line"/>
      <point x="367" y="-93" type="line"/>
      <point x="367" y="1350" type="line"/>
      <point x="175" y="1350" type="line"/>
      <point x="175" y="1480" type="line"/>
      <point x="625" y="1480" type="line"/>
      <point x="625" y="-222" type="line"/>
    </contour>
  </outline>
</glyph>
<glyph name="underscore" format="1">
  <advance width="1333"/>
  <unicode hex="005F"/>
  <outline>
    <contour>
      <point x="192" y="-152" type="line"/>
      <point x="192" y="-24" type="line"/>
      <point x="1141" y="-24" type="line"/>
      <point x="1141" y="-152" type="line"/>
    </contour>
  </outline>
</glyph>
<glyph name="grave" format="1">
  <advance width="681"/>
  <unicode hex="0060"/>
  <outline>
    <contour>
      <point x="411" y="1162" type="line"/>
      <point x="81" y="1480" type="line"/>
      <point x="354" y="1480" type="line"/>
      <point x="600" y="1162" type="line"/>
    </contour>
  </outline>
</glyph>
<glyph name="c" format="1">
  <advance width="1025"/>
  <unicode hex="0063"/>
  <outline>
    <contour>
      <point x="955" y="81" type="line"/>
      <point x="842.506" y="11.5732"/>
      <point x="727.026" y="-22.3291"/>
      <point x="611.938" y="-22.3291" type="curve" smooth="yes"/>
      <point x="341.298" y="-22.3291"/>
      <point x="100" y="165.149"/>
      <point x="100" y="519" type="curve" smooth="yes"/>
      <point x="100" y="853.782"/>
      <point x="337.381" y="1047.99"/>
      <point x="610.439" y="1047.99" type="curve" smooth="yes"/>
      <point x="714.736" y="1047.99"/>
      <point x="819.114" y="1019.65"/>
      <point x="925" y="960" type="curve"/>
      <point x="860" y="798" type="line"/>
      <point x="778.775" y="839.885"/>
      <point x="706.395" y="861.836"/>
      <point x="634.237" y="861.836" type="curve" smooth="yes"/>
      <point x="475.123" y="861.836"/>
      <point x="348" y="755.099"/>
      <point x="348" y="520" type="curve" smooth="yes"/>
      <point x="348" y="258.329"/>
      <point x="483.854" y="163.856"/>
      <point x="636.229" y="163.856" type="curve" smooth="yes"/>
      <point x="719.107" y="163.856"/>
      <point x="801.24" y="191.805"/>
      <point x="882" y="236" type="curve"/>
    </contour>
  </outline>
</glyph>
<glyph name="d" format="1">
  <advance width="1233"/>
  <unicode hex="0064"/>
  <outline>
    <contour>
      <point x="576.716" y="163.974" type="curve" smooth="yes"/>
      <point x="721.431" y="163.974"/>
      <point x="793.14" y="285.301"/>
      <point x="793.14" y="429" type="curve" smooth="yes"/>
      <point x="793.14" y="849" type="line"/>
      <point x="793.14" y="849"/>
      <point x="705.14" y="862"/>
      <point x="646.14" y="862" type="curve" smooth="yes"/>
      <point x="448.123" y="862"/>
      <point x="344.952" y="671.105"/>
      <point x="344.952" y="488.974" type="curve" smooth="yes"/>
      <point x="344.952" y="322.827"/>
      <point x="410.148" y="163.974"/>
    </contour>
    <contour>
      <point x="793.64" y="1023.84" type="curve"/>
      <point x="793.14" y="1560" type="line"/>
      <point x="1035.14" y="1560" type="line"/>
      <point x="1035.14" y="345" type="line" smooth="yes"/>
      <point x="1035.14" y="242"/>
      <point x="1038.14" y="174"/>
      <point x="1159.14" y="174" type="curve" smooth="yes"/>
      <point x="1170.14" y="174"/>
      <point x="1183.14" y="175"/>
      <point x="1196.14" y="176" type="curve"/>
      <point x="1172.14" y="-16" type="line"/>
      <point x="1148.14" y="-17"/>
      <point x="1124.14" y="-18"/>
      <point x="1103.14" y="-18" type="curve" smooth="yes"/>
      <point x="951.14" y="-18"/>
      <point x="871.14" y="22"/>
      <point x="825.14" y="151" type="curve"/>
      <point x="772.394" y="44.4932"/>
      <point x="673.816" y="-22.0254"/>
      <point x="548.132" y="-22.0254" type="curve" smooth="yes"/>
      <point x="249.428" y="-22.0254"/>
      <point x="100" y="231.557"/>
      <point x="100" y="491.825" type="curve" smooth="yes"/>
      <point x="100" y="766.196"/>
      <point x="282.948" y="1048"/>
      <point x="661.14" y="1048" type="curve" smooth="yes"/>
      <point x="704.7" y="1048"/>
      <point x="760.38" y="1033.99"/>
    </contour>
  </outline>
</glyph>
<glyph name="i" format="1">
  <advance width="695"/>
  <unicode hex="0069"/>
  <outline>
    <contour>
      <point x="277" y="1188" type="curve" smooth="yes"/>
      <point x="179" y="1188"/>
      <point x="116" y="1242"/>
      <point x="116" y="1334" type="curve" smooth="yes"/>
      <point x="116" y="1426"/>
      <point x="179" y="1480"/>
      <point x="279" y="1480" type="curve" smooth="yes"/>
      <point x="376" y="1480"/>
      <point x="440" y="1424"/>
      <point x="440" y="1333" type="curve" smooth="yes"/>
      <point x="440" y="1242"/>
      <point x="376" y="1188"/>
    </contour>
    <contour>
      <point x="613" y="0" type="line"/>
      <point x="583" y="-2"/>
      <point x="555" y="-3"/>
      <point x="528" y="-3" type="curve" smooth="yes"/>
      <point x="246" y="-3"/>
      <point x="151" y="112"/>
      <point x="151" y="435" type="curve" smooth="yes"/>
      <point x="151" y="1026" type="line"/>
      <point x="393" y="1026" type="line"/>
      <point x="393" y="439" type="line" smooth="yes"/>
      <point x="393" y="258"/>
      <point x="402" y="196"/>
      <point x="608" y="196" type="curve" smooth="yes"/>
      <point x="633" y="196" type="line"/>
    </contour>
  </outline>
</glyph>
<glyph name="j" format="1">
  <advance width="665"/>
  <unicode hex="006A"/>
  <outline>
    <contour>
      <point x="122" y="-499" type="curve" smooth="yes"/>
      <point x="19" y="-499"/>
      <point x="-54" y="-475"/>
      <point x="-54" y="-475" type="curve"/>
      <point x="-33" y="-305" type="line"/>
      <point x="-33" y="-305"/>
      <point x="32" y="-323"/>
      <point x="100" y="-323" type="curve" smooth="yes"/>
      <point x="198" y="-323"/>
      <point x="250" y="-280"/>
      <point x="250" y="-90" type="curve" smooth="yes"/>
      <point x="250" y="1026" type="line"/>
      <point x="492" y="1026" type="line"/>
      <point x="492" y="-93" type="line" smooth="yes"/>
      <point x="492" y="-325"/>
      <point x="428" y="-499"/>
    </contour>
    <contour>
      <point x="382" y="1188" type="curve" smooth="yes"/>
      <point x="284" y="1188"/>
      <point x="221" y="1242"/>
      <point x="221" y="1334" type="curve" smooth="yes"/>
      <point x="221" y="1426"/>
      <point x="284" y="1480"/>
      <point x="384" y="1480" type="curve" smooth="yes"/>
      <point x="481" y="1480"/>
      <point x="545" y="1424"/>
      <point x="545" y="1333" type="curve" smooth="yes"/>
      <point x="545" y="1242"/>
      <point x="481" y="1188"/>
    </contour>
  </outline>
</glyph>
<glyph name="l" format="1">
  <advance width="701"/>
  <unicode hex="006C"/>
  <outline>
    <contour>
      <point x="650" y="-6" type="line"/>
      <point x="617" y="-8"/>
      <point x="586" y="-9"/>
      <point x="556" y="-9" type="curve" smooth="yes"/>
      <point x="265" y="-9"/>
      <point x="140" y="99"/>
      <point x="140" y="419" type="curve" smooth="yes"/>
      <point x="140" y="1560" type="line"/>
      <point x="382" y="1560" type="line"/>
      <point x="382" y="433" type="line" smooth="yes"/>
      <point x="382" y="252"/>
      <point x="426" y="190"/>
      <point x="644" y="190" type="curve" smooth="yes"/>
      <point x="670" y="190" type="line"/>
    </contour>
  </outline>
</glyph>
<glyph name="m" format="1">
  <advance width="1888"/>
  <unicode hex="006D"/>
  <outline>
    <contour>
      <point x="1827" y="-16" type="line"/>
      <point x="1800" y="-18"/>
      <point x="1774" y="-19"/>
      <point x="1750" y="-19" type="curve" smooth="yes"/>
      <point x="1461" y="-19"/>
      <point x="1437" y="134"/>
      <point x="1437" y="339" type="curve" smooth="yes"/>
      <point x="1437" y="617" type="line" smooth="yes"/>
      <point x="1437" y="770"/>
      <point x="1395" y="856"/>
      <point x="1265" y="856" type="curve" smooth="yes"/>
      <point x="1154" y="856"/>
      <point x="1048" y="758"/>
      <point x="1048" y="574" type="curve" smooth="yes"/>
      <point x="1048" y="0" type="line"/>
      <point x="806" y="0" type="line"/>
      <point x="806" y="617" type="line" smooth="yes"/>
      <point x="806" y="782"/>
      <point x="762" y="856"/>
      <point x="654" y="856" type="curve" smooth="yes"/>
      <point x="523" y="856"/>
      <point x="409" y="765"/>
      <point x="409" y="548" type="curve" smooth="yes"/>
      <point x="409" y="0" type="line"/>
      <point x="167" y="0" type="line"/>
      <point x="167" y="524" type="line" smooth="yes"/>
      <point x="167" y="834"/>
      <point x="132" y="1026"/>
      <point x="132" y="1026" type="curve"/>
      <point x="380" y="1026" type="line"/>
      <point x="380" y="1026"/>
      <point x="388" y="988"/>
      <point x="395" y="907" type="curve"/>
      <point x="488" y="1013"/>
      <point x="607" y="1048"/>
      <point x="709" y="1048" type="curve" smooth="yes"/>
      <point x="865" y="1048"/>
      <point x="932" y="964"/>
      <point x="980" y="862" type="curve"/>
      <point x="1074" y="1018"/>
      <point x="1213" y="1048"/>
      <point x="1317" y="1048" type="curve" smooth="yes"/>
      <point x="1553" y="1048"/>
      <point x="1679" y="890"/>
      <point x="1679" y="623" type="curve" smooth="yes"/>
      <point x="1679" y="357" type="line" smooth="yes"/>
      <point x="1679" y="248"/>
      <point x="1683" y="174"/>
      <point x="1809" y="174" type="curve" smooth="yes"/>
      <point x="1822" y="174"/>
      <point x="1836" y="174"/>
      <point x="1851" y="176" type="curve"/>
    </contour>
  </outline>
</glyph>
<glyph name="n" format="1">
  <advance width="1285"/>
  <unicode hex="006E"/>
  <outline>
    <contour>
      <point x="1248" y="176" type="curve"/>
      <point x="1224" y="-16" type="line"/>
      <point x="1196" y="-18"/>
      <point x="1171" y="-19"/>
      <point x="1147" y="-19" type="curve" smooth="yes"/>
      <point x="866" y="-19"/>
      <point x="834" y="120"/>
      <point x="834" y="348" type="curve" smooth="yes"/>
      <point x="834" y="604" type="line" smooth="yes"/>
      <point x="834" y="757"/>
      <point x="788" y="857"/>
      <point x="654" y="857" type="curve" smooth="yes"/>
      <point x="508" y="857"/>
      <point x="409" y="717"/>
      <point x="409" y="522" type="curve" smooth="yes"/>
      <point x="409" y="0" type="line"/>
      <point x="167" y="0" type="line"/>
      <point x="167" y="524" type="line" smooth="yes"/>
      <point x="167" y="834"/>
      <point x="132" y="1026"/>
      <point x="132" y="1026" type="curve"/>
      <point x="380" y="1026" type="line"/>
      <point x="380" y="1026"/>
      <point x="388" y="987"/>
      <point x="395" y="906" type="curve"/>
      <point x="473" y="1002"/>
      <point x="580" y="1048"/>
      <point x="728" y="1048" type="curve" smooth="yes"/>
      <point x="957" y="1048"/>
      <point x="1076" y="914"/>
      <point x="1076" y="647" type="curve" smooth="yes"/>
      <point x="1076" y="345" type="line" smooth="yes"/>
      <point x="1076" y="246"/>
      <point x="1082" y="174"/>
      <point x="1206" y="174" type="curve" smooth="yes"/>
      <point x="1219" y="174"/>
      <point x="1233" y="174"/>
    </contour>
  </outline>
</glyph>
<glyph name="p" format="1">
  <advance width="1202"/>
  <unicode hex="0070"/>
  <outline>
    <contour>
      <point x="167" y="-574" type="line"/>
      <point x="167" y="524" type="line" smooth="yes"/>
      <point x="167" y="834"/>
      <point x="132" y="1026"/>
      <point x="132" y="1026" type="curve"/>
      <point x="374" y="1026" type="line"/>
      <point x="374" y="1026"/>
      <point x="385" y="980"/>
      <point x="393" y="895" type="curve"/>
      <point x="451" y="1002"/>
      <point x="543" y="1048"/>
      <point x="684" y="1048" type="curve" smooth="yes"/>
      <point x="858" y="1048"/>
      <point x="1102" y="936"/>
      <point x="1102" y="557" type="curve" smooth="yes"/>
      <point x="1102" y="204"/>
      <point x="904" y="-22"/>
      <point x="583" y="-22" type="curve" smooth="yes"/>
      <point x="519" y="-22"/>
      <point x="460" y="-11"/>
      <point x="409" y="2" type="curve"/>
      <point x="409" y="-574" type="line"/>
    </contour>
    <contour>
      <point x="409" y="179" type="line"/>
      <point x="446" y="171"/>
      <point x="497" y="164"/>
      <point x="547" y="164" type="curve" smooth="yes"/>
      <point x="754" y="164"/>
      <point x="858" y="305"/>
      <point x="858" y="555" type="curve" smooth="yes"/>
      <point x="858" y="750"/>
      <point x="777" y="862"/>
      <point x="647" y="862" type="curve" smooth="yes"/>
      <point x="516" y="862"/>
      <point x="409" y="759"/>
      <point x="409" y="520" type="curve" smooth="yes"/>
    </contour>
  </outline>
</glyph>
<glyph name="q" format="1">
  <advance width="1266"/>
  <unicode hex="0071"/>
  <outline>
    <contour>
      <point x="561" y="164" type="curve" smooth="yes"/>
      <point x="709" y="164"/>
      <point x="818" y="336"/>
      <point x="818" y="529" type="curve" smooth="yes"/>
      <point x="818" y="838" type="line"/>
      <point x="782" y="852"/>
      <point x="712" y="862"/>
      <point x="659" y="862" type="curve" smooth="yes"/>
      <point x="490" y="862"/>
      <point x="354" y="709"/>
      <point x="354" y="454" type="curve" smooth="yes"/>
      <point x="354" y="302"/>
      <point x="450" y="164"/>
    </contour>
    <contour>
      <point x="1089" y="-552" type="line"/>
      <point x="1048" y="-568"/>
      <point x="1012" y="-575"/>
      <point x="980" y="-575" type="curve" smooth="yes"/>
      <point x="874" y="-575"/>
      <point x="818" y="-497"/>
      <point x="818" y="-391" type="curve" smooth="yes"/>
      <point x="818" y="107" type="line"/>
      <point x="750" y="14"/>
      <point x="628" y="-22"/>
      <point x="532" y="-22" type="curve" smooth="yes"/>
      <point x="288" y="-22"/>
      <point x="106" y="183"/>
      <point x="106" y="444" type="curve" smooth="yes"/>
      <point x="106" y="790"/>
      <point x="325" y="1048"/>
      <point x="658" y="1048" type="curve" smooth="yes"/>
      <point x="785" y="1048"/>
      <point x="964" y="998"/>
      <point x="1060" y="942" type="curve"/>
      <point x="1060" y="-357" type="line"/>
      <point x="1322" y="-226" type="line"/>
      <point x="1371" y="-405" type="line"/>
    </contour>
  </outline>
</glyph>
<glyph name="s" format="1">
  <advance width="941"/>
  <unicode hex="0073"/>
  <outline>
    <contour>
      <point x="491" y="-22" type="curve" smooth="yes"/>
      <point x="339" y="-22"/>
      <point x="198" y="36"/>
      <point x="137" y="69" type="curve"/>
      <point x="189" y="246" type="line"/>
      <point x="309" y="193"/>
      <point x="409" y="167"/>
      <point x="482" y="167" type="curve" smooth="yes"/>
      <point x="566" y="167"/>
      <point x="615" y="202"/>
      <point x="621" y="275" type="curve"/>
      <point x="621" y="283" type="line" smooth="yes"/>
      <point x="621" y="463"/>
      <point x="130" y="414"/>
      <point x="130" y="733" type="curve" smooth="yes"/>
      <point x="130" y="740"/>
      <point x="131" y="747"/>
      <point x="131" y="754" type="curve" smooth="yes"/>
      <point x="139" y="882"/>
      <point x="221" y="1048"/>
      <point x="478" y="1048" type="curve" smooth="yes"/>
      <point x="659" y="1048"/>
      <point x="777" y="988"/>
      <point x="804" y="973" type="curve"/>
      <point x="748" y="810" type="line"/>
      <point x="657" y="848"/>
      <point x="571" y="868"/>
      <point x="503" y="868" type="curve" smooth="yes"/>
      <point x="415" y="868"/>
      <point x="358" y="834"/>
      <point x="358" y="765" type="curve" smooth="yes"/>
      <point x="358" y="593"/>
      <point x="845" y="655"/>
      <point x="845" y="297" type="curve" smooth="yes"/>
      <point x="845" y="101"/>
      <point x="724" y="-22"/>
    </contour>
  </outline>
</glyph>
<glyph name="t" format="1">
  <advance width="897"/>
  <unicode hex="0074"/>
  <outline>
    <contour>
      <point x="17" y="862" type="line"/>
      <point x="17" y="1026" type="line"/>
      <point x="220" y="1026" type="line"/>
      <point x="220" y="1419" type="line"/>
      <point x="462" y="1419" type="line"/>
      <point x="462" y="1026" type="line"/>
      <point x="765" y="1026" type="line"/>
      <point x="765" y="862" type="line"/>
      <point x="462" y="862" type="line"/>
      <point x="462" y="431" type="line" smooth="yes"/>
      <point x="462" y="251"/>
      <point x="496" y="193"/>
      <point x="773" y="193" type="curve" smooth="yes"/>
      <point x="810" y="193" type="line"/>
      <point x="790" y="-4" type="line"/>
      <point x="749" y="-6"/>
      <point x="711" y="-7"/>
      <point x="676" y="-7" type="curve" smooth="yes"/>
      <point x="328" y="-7"/>
      <point x="220" y="101"/>
      <point x="220" y="421" type="curve" smooth="yes"/>
      <point x="220" y="862" type="line"/>
    </contour>
  </outline>
</glyph>
<glyph name="u" format="1">
  <advance width="1219"/>
  <unicode hex="0075"/>
  <outline>
    <contour>
      <point x="497" y="-22" type="curve" smooth="yes"/>
      <point x="273" y="-22"/>
      <point x="138" y="129"/>
      <point x="138" y="354" type="curve" smooth="yes"/>
      <point x="138" y="524" type="line" smooth="yes"/>
      <point x="138" y="834"/>
      <point x="116" y="1026"/>
      <point x="116" y="1026" type="curve"/>
      <point x="364" y="1026" type="line"/>
      <point x="364" y="1026"/>
      <point x="380" y="880"/>
      <point x="380" y="553" type="curve" smooth="yes"/>
      <point x="380" y="377" type="line" smooth="yes"/>
      <point x="380" y="251"/>
      <point x="439" y="172"/>
      <point x="547" y="165" type="curve" smooth="yes"/>
      <point x="555" y="164"/>
      <point x="562" y="164"/>
      <point x="569" y="164" type="curve" smooth="yes"/>
      <point x="694" y="164"/>
      <point x="776" y="237"/>
      <point x="776" y="409" type="curve" smooth="yes"/>
      <point x="776" y="1026" type="line"/>
      <point x="1018" y="1026" type="line"/>
      <point x="1018" y="360" type="line" smooth="yes"/>
      <point x="1018" y="244"/>
      <point x="1028" y="176"/>
      <point x="1177" y="176" type="curve"/>
      <point x="1145" y="-16" type="line"/>
      <point x="983" y="-16"/>
      <point x="872" y="-1"/>
      <point x="818" y="151" type="curve"/>
      <point x="770" y="50"/>
      <point x="655" y="-22"/>
    </contour>
  </outline>
</glyph>
<glyph name="y" format="1">
  <advance width="1180"/>
  <unicode hex="0079"/>
  <outline>
    <contour>
      <point x="497" y="0" type="curve" smooth="yes"/>
      <point x="273" y="0"/>
      <point x="138" y="151"/>
      <point x="138" y="376" type="curve" smooth="yes"/>
      <point x="138" y="524" type="line" smooth="yes"/>
      <point x="138" y="834"/>
      <point x="116" y="1026"/>
      <point x="116" y="1026" type="curve"/>
      <point x="364" y="1026" type="line"/>
      <point x="364" y="1026"/>
      <point x="380" y="880"/>
      <point x="380" y="553" type="curve" smooth="yes"/>
      <point x="380" y="399" type="line" smooth="yes"/>
      <point x="380" y="273"/>
      <point x="439" y="194"/>
      <point x="547" y="187" type="curve" smooth="yes"/>
      <point x="555" y="186"/>
      <point x="562" y="186"/>
      <point x="569" y="186" type="curve" smooth="yes"/>
      <point x="694" y="186"/>
      <point x="776" y="259"/>
      <point x="776" y="431" type="curve" smooth="yes"/>
      <point x="776" y="1026" type="line"/>
      <point x="1018" y="1026" type="line"/>
      <point x="1018" y="416" type="line"/>
      <point x="1019" y="417" type="line"/>
      <point x="1019" y="-16" type="line" smooth="yes"/>
      <point x="1019" y="-385"/>
      <point x="833" y="-574"/>
      <point x="523" y="-574" type="curve" smooth="yes"/>
      <point x="412" y="-574"/>
      <point x="286" y="-550"/>
      <point x="146" y="-501" type="curve"/>
      <point x="173" y="-298" type="line"/>
      <point x="260" y="-342"/>
      <point x="377" y="-379"/>
      <point x="485" y="-379" type="curve" smooth="yes"/>
      <point x="640" y="-379"/>
      <point x="777" y="-303"/>
      <point x="777" y="-62" type="curve" smooth="yes"/>
      <point x="777" y="111" type="line"/>
      <point x="717" y="44"/>
      <point x="620" y="0"/>
    </contour>
  </outline>
</glyph>
<glyph name="z" format="1">
  <advance width="957"/>
  <unicode hex="007A"/>
  <outline>
    <contour>
      <point x="111" y="0" type="line"/>
      <point x="111" y="155" type="line"/>
      <point x="589" y="856" type="line"/>
      <point x="117" y="856" type="line"/>
      <point x="117" y="1026" type="line"/>
      <point x="877" y="1026" type="line"/>
      <point x="877" y="873" type="line"/>
      <point x="407" y="170" type="line"/>
      <point x="899" y="170" type="line"/>
      <point x="899" y="0" type="line"/>
    </contour>
  </outline>
</glyph>
<glyph name="braceleft" format="1">
  <advance width="793"/>
  <unicode hex="007B"/>
  <outline>
    <contour>
      <point x="707" y="-196" type="line"/>
      <point x="489" y="-196"/>
      <point x="266" y="-107"/>
      <point x="266" y="122" type="curve" smooth="yes"/>
      <point x="266" y="299" type="line" smooth="yes"/>
      <point x="266" y="473"/>
      <point x="241" y="569"/>
      <point x="81" y="586" type="curve"/>
      <point x="81" y="768" type="line"/>
      <point x="222" y="781"/>
      <point x="266" y="869"/>
      <point x="266" y="1024" type="curve" smooth="yes"/>
      <point x="266" y="1190" type="line" smooth="yes"/>
      <point x="266" y="1440"/>
      <point x="454" y="1552"/>
      <point x="707" y="1552" type="curve"/>
      <point x="707" y="1384" type="line"/>
      <point x="572" y="1384"/>
      <point x="516" y="1343"/>
      <point x="516" y="1207" type="curve" smooth="yes"/>
      <point x="516" y="998" type="line" smooth="yes"/>
      <point x="516" y="843"/>
      <point x="429" y="729"/>
      <point x="332" y="677" type="curve"/>
      <point x="440" y="626"/>
      <point x="516" y="513"/>
      <point x="516" y="360" type="curve" smooth="yes"/>
      <point x="516" y="203" type="line" smooth="yes"/>
      <point x="516" y="42"/>
      <point x="537" y="-28"/>
      <point x="707" y="-28" type="curve"/>
    </contour>
  </outline>
</glyph>
<glyph name="bar" format="1">
  <advance width="616"/>
  <unicode hex="007C"/>
  <outline>
    <contour>
      <point x="192" y="-126" type="line"/>
      <point x="192" y="1570" type="line"/>
      <point x="424" y="1570" type="line"/>
      <point x="424" y="-126" type="line"/>
    </contour>
  </outline>
</glyph>
<glyph name="asciitilde" format="1">
  <advance width="1432"/>
  <unicode hex="007E"/>
  <outline>
    <contour>
      <point x="281" y="667" type="curve"/>
      <point x="134" y="721" type="line"/>
      <point x="173" y="959"/>
      <point x="321" y="1081"/>
      <point x="485" y="1081" type="curve" smooth="yes"/>
      <point x="538" y="1081"/>
      <point x="592" y="1069"/>
      <point x="645" y="1043" type="curve" smooth="yes"/>
      <point x="884" y="928" type="line" smooth="yes"/>
      <point x="918" y="912"/>
      <point x="948" y="904"/>
      <point x="974" y="904" type="curve" smooth="yes"/>
      <point x="1071" y="904"/>
      <point x="1116" y="1006"/>
      <point x="1155" y="1113" type="curve"/>
      <point x="1302" y="1067" type="line"/>
      <point x="1258" y="838"/>
      <point x="1153" y="677"/>
      <point x="980" y="677" type="curve" smooth="yes"/>
      <point x="928" y="677"/>
      <point x="870" y="692"/>
      <point x="805" y="724" type="curve" smooth="yes"/>
      <point x="575" y="838" type="line" smooth="yes"/>
      <point x="539" y="856"/>
      <point x="505" y="864"/>
      <point x="475" y="864" type="curve" smooth="yes"/>
      <point x="369" y="864"/>
      <point x="302" y="765"/>
    </contour>
  </outline>
</glyph>
<glyph name="dieresis" format="1">
  <advance width="1140"/>
  <unicode hex="00A8"/>
  <outline>
    <contour>
      <point x="693" y="1304" type="curve" smooth="yes"/>
      <point x="693" y="1345" type="line" smooth="yes"/>
      <point x="693" y="1417"/>
      <point x="752" y="1476"/>
      <point x="824" y="1476" type="curve" smooth="yes"/>
      <point x="896" y="1476"/>
      <point x="954" y="1417"/>
      <point x="954" y="1345" type="curve" smooth="yes"/>
      <point x="954" y="1304" type="line" smooth="yes"/>
      <point x="954" y="1232"/>
      <point x="896" y="1174"/>
      <point x="824" y="1174" type="curve" smooth="yes"/>
      <point x="752" y="1174"/>
      <point x="693" y="1232"/>
    </contour>
    <contour>
      <point x="187" y="1304" type="curve" smooth="yes"/>
      <point x="187" y="1345" type="line" smooth="yes"/>
      <point x="187" y="1417"/>
      <point x="246" y="1476"/>
      <point x="318" y="1476" type="curve" smooth="yes"/>
      <point x="390" y="1476"/>
      <point x="448" y="1417"/>
      <point x="448" y="1345" type="curve" smooth="yes"/>
      <point x="448" y="1304" type="line" smooth="yes"/>
      <point x="448" y="1232"/>
      <point x="390" y="1174"/>
      <point x="318" y="1174" type="curve" smooth="yes"/>
      <point x="246" y="1174"/>
      <point x="187" y="1232"/>
    </contour>
  </outline>
</glyph>
<glyph name="copyright" format="1">
  <advance width="1864"/>
  <unicode hex="00A9"/>
  <outline>
    <contour>
      <point x="932" y="1480" type="curve" smooth="yes"/>
      <point x="1346" y="1480"/>
      <point x="1684" y="1141"/>
      <point x="1684" y="727" type="curve" smooth="yes"/>
      <point x="1684" y="314"/>
      <point x="1346" y="-25"/>
      <point x="932" y="-25" type="curve" smooth="yes"/>
      <point x="518" y="-25"/>
      <point x="180" y="314"/>
      <point x="180" y="727" type="curve" smooth="yes"/>
      <point x="180" y="1141"/>
      <point x="518" y="1480"/>
    </contour>
    <contour>
      <point x="931" y="80" type="curve" smooth="yes"/>
      <point x="1282" y="80"/>
      <point x="1560" y="374"/>
      <point x="1560" y="725" type="curve" smooth="yes"/>
      <point x="1560" y="1077"/>
      <point x="1282" y="1371"/>
      <point x="931" y="1371" type="curve" smooth="yes"/>
      <point x="579" y="1371"/>
      <point x="301" y="1077"/>
      <point x="301" y="725" type="curve" smooth="yes"/>
      <point x="301" y="374"/>
      <point x="579" y="80"/>
    </contour>
    <contour>
      <point x="957" y="249" type="curve" smooth="yes"/>
      <point x="662" y="249"/>
      <point x="490" y="473"/>
      <point x="490" y="729" type="curve" smooth="yes"/>
      <point x="490" y="1042"/>
      <point x="698" y="1208"/>
      <point x="967" y="1208" type="curve" smooth="yes"/>
      <point x="1077" y="1208"/>
      <point x="1172" y="1174"/>
      <point x="1250" y="1105" type="curve"/>
      <point x="1220" y="985" type="line"/>
      <point x="1150" y="1048"/>
      <point x="1064" y="1080"/>
      <point x="961" y="1080" type="curve" smooth="yes"/>
      <point x="751" y="1080"/>
      <point x="643" y="920"/>
      <point x="643" y="733" type="curve" smooth="yes"/>
      <point x="643" y="504"/>
      <point x="776" y="380"/>
      <point x="987" y="380" type="curve" smooth="yes"/>
      <point x="1084" y="380"/>
      <point x="1158" y="411"/>
      <point x="1216" y="460" type="curve"/>
      <point x="1253" y="339" type="line"/>
      <point x="1170" y="279"/>
      <point x="1072" y="249"/>
    </contour>
  </outline>
</glyph>
<glyph name="ordfeminine" format="1">
  <advance width="1013"/>
  <unicode hex="00AA"/>
  <outline>
    <contour>
      <point x="475" y="757" type="curve" smooth="yes"/>
      <point x="613" y="757"/>
      <point x="678" y="864"/>
      <point x="685" y="1008" type="curve"/>
      <point x="685" y="1037" type="line"/>
      <point x="566" y="1011"/>
      <point x="323" y="1044"/>
      <point x="323" y="881" type="curve" smooth="yes"/>
      <point x="323" y="790"/>
      <point x="391" y="757"/>
    </contour>
    <contour>
      <point x="453" y="636" type="curve" smooth="yes"/>
      <point x="326" y="636"/>
      <point x="229" y="690"/>
      <point x="185" y="779" type="curve" smooth="yes"/>
      <point x="170" y="809"/>
      <point x="163" y="842"/>
      <point x="163" y="879" type="curve" smooth="yes"/>
      <point x="163" y="1039"/>
      <point x="308" y="1112"/>
      <point x="445" y="1134" type="curve" smooth="yes"/>
      <point x="524" y="1146"/>
      <point x="606" y="1144"/>
      <point x="685" y="1156" type="curve"/>
      <point x="685" y="1166" type="line" smooth="yes"/>
      <point x="685" y="1295"/>
      <point x="644" y="1342"/>
      <point x="528" y="1342" type="curve" smooth="yes"/>
      <point x="423" y="1342"/>
      <point x="347" y="1308"/>
      <point x="295" y="1231" type="curve"/>
      <point x="216" y="1319" type="line"/>
      <point x="276" y="1420"/>
      <point x="393" y="1468"/>
      <point x="534" y="1468" type="curve" smooth="yes"/>
      <point x="711" y="1468"/>
      <point x="841" y="1378"/>
      <point x="841" y="1184" type="curve"/>
      <point x="839" y="807" type="line" smooth="yes"/>
      <point x="839" y="755"/>
      <point x="841" y="728"/>
      <point x="847" y="657" type="curve"/>
      <point x="693" y="657" type="line"/>
      <point x="686" y="743" type="line"/>
      <point x="639" y="679"/>
      <point x="559" y="636"/>
    </contour>
  </outline>
</glyph>
<glyph name="registered" format="1">
  <advance width="2098"/>
  <unicode hex="00AE"/>
  <outline>
    <contour>
      <point x="872" y="819" type="line"/>
      <point x="1005" y="819" type="line" smooth="yes"/>
      <point x="1151" y="819"/>
      <point x="1299" y="821"/>
      <point x="1299" y="980" type="curve" smooth="yes"/>
      <point x="1299" y="1157"/>
      <point x="1166" y="1158"/>
      <point x="1003" y="1158" type="curve" smooth="yes"/>
      <point x="871" y="1158" type="line"/>
    </contour>
    <contour>
      <point x="1053" y="0" type="curve" smooth="yes"/>
      <point x="1279" y="0"/>
      <point x="1446" y="93"/>
      <point x="1564" y="217" type="curve"/>
      <point x="1680" y="337"/>
      <point x="1770" y="510"/>
      <point x="1770" y="751" type="curve" smooth="yes"/>
      <point x="1770" y="985"/>
      <point x="1678" y="1166"/>
      <point x="1563" y="1286" type="curve" smooth="yes"/>
      <point x="1445" y="1410"/>
      <point x="1267" y="1504"/>
      <point x="1048" y="1504" type="curve" smooth="yes"/>
      <point x="829" y="1504"/>
      <point x="655" y="1411"/>
      <point x="537" y="1288" type="curve" smooth="yes"/>
      <point x="421" y="1167"/>
      <point x="328" y="987"/>
      <point x="328" y="754" type="curve" smooth="yes"/>
      <point x="328" y="518"/>
      <point x="421" y="337"/>
      <point x="537" y="217" type="curve"/>
      <point x="656" y="92"/>
      <point x="833" y="0"/>
    </contour>
    <contour>
      <point x="1053" y="-138" type="curve" smooth="yes"/>
      <point x="786" y="-138"/>
      <point x="586" y="-22"/>
      <point x="444" y="125" type="curve" smooth="yes"/>
      <point x="345" y="228"/>
      <point x="261" y="360"/>
      <point x="213" y="518" type="curve" smooth="yes"/>
      <point x="191" y="593"/>
      <point x="179" y="671"/>
      <point x="179" y="752" type="curve" smooth="yes"/>
      <point x="179" y="1035"/>
      <point x="309" y="1237"/>
      <point x="446" y="1379" type="curve" smooth="yes"/>
      <point x="588" y="1526"/>
      <point x="784" y="1642"/>
      <point x="1048" y="1642" type="curve" smooth="yes"/>
      <point x="1315" y="1642"/>
      <point x="1512" y="1524"/>
      <point x="1653" y="1377" type="curve" smooth="yes"/>
      <point x="1751" y="1274"/>
      <point x="1837" y="1144"/>
      <point x="1885" y="985" type="curve" smooth="yes"/>
      <point x="1907" y="910"/>
      <point x="1919" y="832"/>
      <point x="1919" y="751" type="curve" smooth="yes"/>
      <point x="1919" y="469"/>
      <point x="1790" y="267"/>
      <point x="1653" y="125" type="curve"/>
      <point x="1513" y="-22"/>
      <point x="1317" y="-138"/>
    </contour>
    <contour>
      <point x="718" y="221" type="line"/>
      <point x="718" y="1299" type="line"/>
      <point x="1007" y="1299" type="line" smooth="yes"/>
      <point x="1162" y="1299"/>
      <point x="1277" y="1274"/>
      <point x="1352" y="1222" type="curve" smooth="yes"/>
      <point x="1427" y="1170"/>
      <point x="1464" y="1095"/>
      <point x="1464" y="998" type="curve" smooth="yes"/>
      <point x="1464" y="810"/>
      <point x="1337" y="722"/>
      <point x="1183" y="700" type="curve"/>
      <point x="1264" y="615"/>
      <point x="1326" y="505"/>
      <point x="1390" y="391" type="curve" smooth="yes"/>
      <point x="1419" y="340"/>
      <point x="1450" y="285"/>
      <point x="1484" y="221" type="curve"/>
      <point x="1306" y="221" type="line"/>
      <point x="1175" y="469" type="line" smooth="yes"/>
      <point x="1131" y="554"/>
      <point x="1085" y="634"/>
      <point x="1020" y="680" type="curve"/>
      <point x="875" y="680" type="line"/>
      <point x="875" y="221" type="line"/>
    </contour>
  </outline>
</glyph>
<glyph name="macron" format="1">
  <advance width="1038"/>
  <unicode hex="00AF"/>
  <outline>
    <contour>
      <point x="192" y="1313" type="line"/>
      <point x="192" y="1470" type="line"/>
      <point x="846" y="1470" type="line"/>
      <point x="846" y="1313" type="line"/>
    </contour>
  </outline>
</glyph>
<glyph name="degree" format="1">
  <advance width="1089"/>
  <unicode hex="00B0"/>
  <outline>
    <contour>
      <point x="544" y="778" type="curve" smooth="yes"/>
      <point x="332" y="778"/>
      <point x="182" y="946"/>
      <point x="182" y="1126" type="curve" smooth="yes"/>
      <point x="182" y="1347"/>
      <point x="372" y="1469"/>
      <point x="544" y="1469" type="curve" smooth="yes"/>
      <point x="758" y="1469"/>
      <point x="906" y="1303"/>
      <point x="906" y="1126" type="curve" smooth="yes"/>
      <point x="906" y="901"/>
      <point x="716" y="778"/>
    </contour>
    <contour>
      <point x="544" y="915" type="curve" smooth="yes"/>
      <point x="671" y="915"/>
      <point x="759" y="1017"/>
      <point x="759" y="1125" type="curve" smooth="yes"/>
      <point x="759" y="1262"/>
      <point x="650" y="1333"/>
      <point x="544" y="1333" type="curve" smooth="yes"/>
      <point x="420" y="1333"/>
      <point x="329" y="1235"/>
      <point x="329" y="1125" type="curve" smooth="yes"/>
      <point x="329" y="985"/>
      <point x="439" y="915"/>
    </contour>
  </outline>
</glyph>
<glyph name="plusminus" format="1">
  <advance width="1544"/>
  <unicode hex="00B1"/>
  <outline>
    <contour>
      <point x="190" y="0" type="line"/>
      <point x="190" y="163" type="line"/>
      <point x="1354" y="163" type="line"/>
      <point x="1354" y="0" type="line"/>
    </contour>
    <contour>
      <point x="686" y="322" type="line"/>
      <point x="686" y="759" type="line"/>
      <point x="190" y="759" type="line"/>
      <point x="190" y="921" type="line"/>
      <point x="684" y="921" type="line"/>
      <point x="684" y="1359" type="line"/>
      <point x="847" y="1359" type="line"/>
      <point x="847" y="921" type="line"/>
      <point x="1349" y="921" type="line"/>
      <point x="1349" y="759" type="line"/>
      <point x="852" y="759" type="line"/>
      <point x="852" y="322" type="line"/>
    </contour>
  </outline>
</glyph>
<glyph name="cedilla" format="1">
  <advance width="813"/>
  <unicode hex="00B8"/>
  <outline>
    <contour>
      <point x="367" y="-481" type="curve" smooth="yes"/>
      <point x="296" y="-481"/>
      <point x="225" y="-469"/>
      <point x="161" y="-456" type="curve"/>
      <point x="171" y="-356" type="line"/>
      <point x="229" y="-370"/>
      <point x="285" y="-384"/>
      <point x="348" y="-384" type="curve" smooth="yes"/>
      <point x="425" y="-384"/>
      <point x="482" y="-365"/>
      <point x="482" y="-300" type="curve" smooth="yes"/>
      <point x="482" y="-230"/>
      <point x="425" y="-214"/>
      <point x="354" y="-214" type="curve" smooth="yes"/>
      <point x="344" y="-214"/>
      <point x="324" y="-215"/>
      <point x="311" y="-217" type="curve"/>
      <point x="273" y="-219" type="line"/>
      <point x="312" y="4" type="line"/>
      <point x="425" y="4" type="line"/>
      <point x="405" y="-122" type="line"/>
      <point x="415" y="-122" type="line"/>
      <point x="537" y="-128"/>
      <point x="650" y="-171"/>
      <point x="650" y="-297" type="curve" smooth="yes"/>
      <point x="650" y="-438"/>
      <point x="510" y="-481"/>
    </contour>
  </outline>
</glyph>
<glyph name="guillemotright" format="1">
  <advance width="1091"/>
  <unicode hex="00BB"/>
  <outline>
    <contour>
      <point x="274" y="1174" type="line"/>
      <point x="566" y="737" type="line"/>
      <point x="269" y="301" type="line"/>
      <point x="81" y="301" type="line"/>
      <point x="386" y="737" type="line"/>
      <point x="88" y="1174" type="line"/>
    </contour>
    <contour>
      <point x="699" y="1174" type="line"/>
      <point x="1010" y="737" type="line"/>
      <point x="694" y="301" type="line"/>
      <point x="526" y="301" type="line"/>
      <point x="808" y="737" type="line"/>
      <point x="534" y="1174" type="line"/>
    </contour>
  </outline>
</glyph>
<glyph name="Oslash" format="1">
  <advance width="1582"/>
  <unicode hex="00D8"/>
  <outline>
    <component base="O"/>
    <contour>
      <point x="453" y="-291" type="line"/>
      <point x="311" y="-239" type="line"/>
      <point x="1148" y="1684" type="line"/>
      <point x="1295" y="1633" type="line"/>
    </contour>
  </outline>
</glyph>
<glyph name="Thorn" format="1">
  <advance width="1367"/>
  <unicode hex="00DE"/>
  <outline>
    <contour>
      <point x="442" y="650" type="line"/>
      <point x="675" y="650" type="line" smooth="yes"/>
      <point x="896" y="650"/>
      <point x="1018" y="678"/>
      <point x="1018" y="852" type="curve" smooth="yes"/>
      <point x="1018" y="1072"/>
      <point x="878" y="1080"/>
      <point x="636" y="1080" type="curve" smooth="yes"/>
      <point x="442" y="1080" type="line"/>
    </contour>
    <contour>
      <point x="192" y="0" type="line"/>
      <point x="192" y="1456" type="line"/>
      <point x="442" y="1456" type="line"/>
      <point x="442" y="1270" type="line"/>
      <point x="632" y="1270" type="line" smooth="yes"/>
      <point x="990" y="1270"/>
      <point x="1253" y="1210"/>
      <point x="1253" y="855" type="curve" smooth="yes"/>
      <point x="1253" y="528"/>
      <point x="1012" y="456"/>
      <point x="677" y="456" type="curve" smooth="yes"/>
      <point x="442" y="456" type="line"/>
      <point x="442" y="0" type="line"/>
    </contour>
  </outline>
</glyph>
<glyph name="germandbls" format="1">
  <advance width="1234"/>
  <unicode hex="00DF"/>
  <outline>
    <contour>
      <point x="1181" y="321" type="curve" smooth="yes"/>
      <point x="1181" y="97"/>
      <point x="1007" y="-23"/>
      <point x="828" y="-23" type="curve" smooth="yes"/>
      <point x="721" y="-23"/>
      <point x="612" y="20"/>
      <point x="538" y="109" type="curve"/>
      <point x="575" y="263" type="line"/>
      <point x="639" y="193"/>
      <point x="723" y="159"/>
      <point x="797" y="159" type="curve" smooth="yes"/>
      <point x="880" y="159"/>
      <point x="949" y="202"/>
      <point x="960" y="287" type="curve" smooth="yes"/>
      <point x="961" y="298"/>
      <point x="962" y="308"/>
      <point x="962" y="319" type="curve" smooth="yes"/>
      <point x="962" y="467"/>
      <point x="826" y="573"/>
      <point x="607" y="711" type="curve" smooth="yes"/>
      <point x="580" y="728"/>
      <point x="563" y="763"/>
      <point x="563" y="800" type="curve" smooth="yes"/>
      <point x="563" y="836"/>
      <point x="580" y="874"/>
      <point x="622" y="897" type="curve" smooth="yes"/>
      <point x="724" y="954"/>
      <point x="805" y="977"/>
      <point x="805" y="1113" type="curve" smooth="yes"/>
      <point x="805" y="1128"/>
      <point x="804" y="1145"/>
      <point x="802" y="1163" type="curve" smooth="yes"/>
      <point x="791" y="1259"/>
      <point x="719" y="1312"/>
      <point x="636" y="1312" type="curve" smooth="yes"/>
      <point x="506" y="1312"/>
      <point x="434" y="1220"/>
      <point x="434" y="1032" type="curve" smooth="yes"/>
      <point x="434" y="0" type="line"/>
      <point x="192" y="0" type="line"/>
      <point x="192" y="1044" type="line" smooth="yes"/>
      <point x="192" y="1324"/>
      <point x="389" y="1480"/>
      <point x="637" y="1480" type="curve" smooth="yes"/>
      <point x="894" y="1480"/>
      <point x="1034" y="1343"/>
      <point x="1044" y="1164" type="curve" smooth="yes"/>
      <point x="1045" y="1154"/>
      <point x="1045" y="1145"/>
      <point x="1045" y="1135" type="curve" smooth="yes"/>
      <point x="1045" y="960"/>
      <point x="950" y="882"/>
      <point x="810" y="820" type="curve" smooth="yes"/>
      <point x="796" y="814"/>
      <point x="787" y="794"/>
      <point x="812" y="779" type="curve" smooth="yes"/>
      <point x="1016" y="656"/>
      <point x="1181" y="574"/>
    </contour>
  </outline>
</glyph>
<glyph name="divide" format="1">
  <advance width="2504"/>
  <unicode hex="00F7"/>
  <outline>
    <contour>
      <point x="830" y="37" type="line"/>
      <point x="830" y="284" type="line"/>
      <point x="1059" y="284" type="line"/>
      <point x="1059" y="37" type="line"/>
    </contour>
    <contour>
      <point x="359" y="581" type="line"/>
      <point x="359" y="745" type="line"/>
      <point x="1518" y="745" type="line"/>
      <point x="1518" y="581" type="line"/>
    </contour>
    <contour>
      <point x="830" y="1037" type="line"/>
      <point x="830" y="1284" type="line"/>
      <point x="1059" y="1284" type="line"/>
      <point x="1059" y="1037" type="line"/>
    </contour>
  </outline>
</glyph>
<glyph name="dotlessi" format="1">
  <advance width="731"/>
  <unicode hex="0131"/>
  <outline>
    <contour>
      <point x="747" y="33" type="line"/>
      <point x="669" y="2"/>
      <point x="589" y="-15"/>
      <point x="515" y="-15" type="curve" smooth="yes"/>
      <point x="340" y="-15"/>
      <point x="197" y="82"/>
      <point x="197" y="337" type="curve" smooth="yes"/>
      <point x="197" y="1026" type="line"/>
      <point x="439" y="1026" type="line"/>
      <point x="439" y="334" type="line" smooth="yes"/>
      <point x="439" y="217"/>
      <point x="485" y="177"/>
      <point x="567" y="177" type="curve" smooth="yes"/>
      <point x="608" y="177"/>
      <point x="658" y="187"/>
      <point x="716" y="203" type="curve"/>
    </contour>
  </outline>
</glyph>
<glyph name="OE" format="1">
  <advance width="3537"/>
  <unicode hex="0152"/>
  <outline>
    <contour>
      <point x="988" y="133" type="curve" smooth="yes"/>
      <point x="1142" y="133"/>
      <point x="1251" y="205"/>
      <point x="1331" y="298" type="curve"/>
      <point x="1331" y="1418" type="line"/>
      <point x="1247" y="1499"/>
      <point x="1141" y="1554"/>
      <point x="990" y="1554" type="curve" smooth="yes"/>
      <point x="795" y="1554"/>
      <point x="659" y="1461"/>
      <point x="570" y="1338" type="curve" smooth="yes"/>
      <point x="483" y="1218"/>
      <point x="426" y="1044"/>
      <point x="426" y="838" type="curve" smooth="yes"/>
      <point x="426" y="518"/>
      <point x="544" y="291"/>
      <point x="744" y="188" type="curve" smooth="yes"/>
      <point x="814" y="152"/>
      <point x="896" y="133"/>
    </contour>
    <contour>
      <point x="990" y="-40" type="curve" smooth="yes"/>
      <point x="615" y="-40"/>
      <point x="377" y="167"/>
      <point x="268" y="477" type="curve" smooth="yes"/>
      <point x="229" y="586"/>
      <point x="210" y="707"/>
      <point x="210" y="843" type="curve" smooth="yes"/>
      <point x="210" y="1258"/>
      <point x="405" y="1536"/>
      <point x="674" y="1661" type="curve" smooth="yes"/>
      <point x="769" y="1706"/>
      <point x="877" y="1728"/>
      <point x="997" y="1728" type="curve" smooth="yes"/>
      <point x="1136" y="1728"/>
      <point x="1244" y="1676"/>
      <point x="1331" y="1608" type="curve"/>
      <point x="1331" y="1696" type="line"/>
      <point x="2203" y="1696" type="line"/>
      <point x="2203" y="1522" type="line"/>
      <point x="1513" y="1522" type="line"/>
      <point x="1513" y="949" type="line"/>
      <point x="2158" y="949" type="line"/>
      <point x="2158" y="776" type="line"/>
      <point x="1513" y="776" type="line"/>
      <point x="1513" y="160" type="line"/>
      <point x="2237" y="160" type="line"/>
      <point x="2237" y="-14" type="line"/>
      <point x="1331" y="-14" type="line"/>
      <point x="1331" y="110" type="line"/>
      <point x="1245" y="24"/>
      <point x="1139" y="-40"/>
    </contour>
  </outline>
</glyph>
<glyph name="ring" format="1">
  <advance width="1075"/>
  <unicode hex="02DA"/>
  <outline>
    <contour>
      <point x="526" y="1129" type="curve" smooth="yes"/>
      <point x="365" y="1129"/>
      <point x="278" y="1243"/>
      <point x="278" y="1351" type="curve" smooth="yes"/>
      <point x="278" y="1508"/>
      <point x="419" y="1576"/>
      <point x="525" y="1576" type="curve" smooth="yes"/>
      <point x="683" y="1576"/>
      <point x="771" y="1461"/>
      <point x="771" y="1353" type="curve" smooth="yes"/>
      <point x="771" y="1199"/>
      <point x="627" y="1129"/>
    </contour>
    <contour>
      <point x="523" y="1229" type="curve" smooth="yes"/>
      <point x="594" y="1229"/>
      <point x="654" y="1282"/>
      <point x="654" y="1353" type="curve" smooth="yes"/>
      <point x="654" y="1425"/>
      <point x="596" y="1476"/>
      <point x="523" y="1476" type="curve" smooth="yes"/>
      <point x="452" y="1476"/>
      <point x="394" y="1424"/>
      <point x="394" y="1353" type="curve" smooth="yes"/>
      <point x="394" y="1277"/>
      <point x="447" y="1229"/>
    </contour>
  </outline>
</glyph>
<glyph name="acutecomb" format="1">
  <advance width="1078"/>
  <unicode hex="0301"/>
  <outline>
    <contour>
      <point x="300" y="1144" type="line"/>
      <point x="566" y="1520" type="line"/>
      <point x="885" y="1520" type="line"/>
      <point x="523" y="1144" type="line"/>
    </contour>
  </outline>
</glyph>
<glyph name="Delta" format="1">
  <advance width="2324"/>
  <unicode hex="0394"/>
  <outline>
    <contour>
      <point x="350" y="190" type="line"/>
      <point x="1247" y="190" type="line"/>
      <point x="833" y="1305" type="line"/>
      <point x="793" y="1430" type="line"/>
      <point x="756" y="1305" type="line"/>
    </contour>
    <contour>
      <point x="81" y="0" type="line"/>
      <point x="81" y="94" type="line"/>
      <point x="692" y="1678" type="line"/>
      <point x="906" y="1678" type="line"/>
      <point x="1517" y="94" type="line"/>
      <point x="1517" y="0" type="line"/>
    </contour>
  </outline>
</glyph>
<glyph name="uni03BC" format="1">
  <advance width="2153"/>
  <unicode hex="03BC"/>
  <outline>
    <contour>
      <point x="287" y="-356" type="line"/>
      <point x="287" y="1086" type="line"/>
      <point x="480" y="1086" type="line"/>
      <point x="480" y="350" type="line" smooth="yes"/>
      <point x="480" y="132"/>
      <point x="567" y="9"/>
      <point x="781" y="9" type="curve" smooth="yes"/>
      <point x="958" y="9"/>
      <point x="1065" y="111"/>
      <point x="1110" y="245" type="curve" smooth="yes"/>
      <point x="1125" y="292"/>
      <point x="1133" y="341"/>
      <point x="1133" y="393" type="curve" smooth="yes"/>
      <point x="1133" y="1086" type="line"/>
      <point x="1327" y="1086" type="line"/>
      <point x="1327" y="170" type="line" smooth="yes"/>
      <point x="1327" y="64"/>
      <point x="1328" y="-20"/>
      <point x="1336" y="-119" type="curve"/>
      <point x="1137" y="-119" type="line"/>
      <point x="1133" y="40" type="line"/>
      <point x="1043" y="-83"/>
      <point x="911" y="-145"/>
      <point x="737" y="-145" type="curve" smooth="yes"/>
      <point x="630" y="-145"/>
      <point x="547" y="-123"/>
      <point x="480" y="-83" type="curve"/>
      <point x="480" y="-356" type="line"/>
    </contour>
  </outline>
</glyph>
<glyph name="quotesinglbase" format="1">
  <advance width="984"/>
  <unicode hex="201A"/>
  <outline>
    <contour>
      <point x="230" y="-419" type="line"/>
      <point x="355" y="96" type="line"/>
      <point x="567" y="96" type="line"/>
      <point x="386" y="-419" type="line"/>
    </contour>
  </outline>
</glyph>
<glyph name="quotedblright" format="1">
  <advance width="1789"/>
  <unicode hex="201D"/>
  <outline>
    <contour>
      <point x="845" y="937" type="line"/>
      <point x="960" y="1454" type="line"/>
      <point x="1173" y="1454" type="line"/>
      <point x="993" y="937" type="line"/>
    </contour>
    <contour>
      <point x="475" y="937" type="line"/>
      <point x="597" y="1454" type="line"/>
      <point x="803" y="1454" type="line"/>
      <point x="631" y="937" type="line"/>
    </contour>
  </outline>
</glyph>
<glyph name="Euro" format="1">
  <advance width="1370"/>
  <unicode hex="20AC"/>
  <outline>
    <component base="C" xOffset="30"/>
    <contour>
      <point x="1000" y="466" type="line"/>
      <point x="-5" y="466" type="line"/>
      <point x="18" y="628" type="line"/>
      <point x="219" y="628" type="line"/>
      <point x="219" y="814" type="line"/>
      <point x="-9" y="814" type="line"/>
      <point x="17" y="976" type="line"/>
      <point x="1062" y="976" type="line"/>
      <point x="1038" y="814" type="line"/>
      <point x="346" y="814" type="line"/>
      <point x="346" y="628" type="line"/>
      <point x="1023" y="628" type="line"/>
    </contour>
  </outline>
</glyph>
<glyph name="trademark" format="1">
  <advance width="3165"/>
  <unicode hex="2122"/>
  <outline>
    <contour>
      <point x="426" y="1208" type="line"/>
      <point x="426" y="1988" type="line"/>
      <point x="133" y="1988" type="line"/>
      <point x="133" y="2107" type="line"/>
      <point x="832" y="2107" type="line"/>
      <point x="832" y="1988" type="line"/>
      <point x="557" y="1988" type="line"/>
      <point x="557" y="1208" type="line"/>
    </contour>
    <contour>
      <point x="951" y="1208" type="line"/>
      <point x="951" y="2107" type="line"/>
      <point x="1153" y="2107" type="line"/>
      <point x="1403" y="1459" type="line"/>
      <point x="1672" y="2107" type="line"/>
      <point x="1882" y="2107" type="line"/>
      <point x="1882" y="1208" type="line"/>
      <point x="1739" y="1208" type="line"/>
      <point x="1739" y="1907" type="line"/>
      <point x="1439" y="1208" type="line"/>
      <point x="1354" y="1208" type="line"/>
      <point x="1080" y="1906" type="line"/>
      <point x="1080" y="1208" type="line"/>
    </contour>
  </outline>
</glyph>
<glyph name="minus" format="1">
  <advance width="1115"/>
  <unicode hex="2212"/>
  <outline>
    <contour>
      <point x="168" y="640" type="line"/>
      <point x="168" y="837" type="line"/>
      <point x="947" y="837" type="line"/>
      <point x="947" y="640" type="line"/>
    </contour>
  </outline>
</glyph>
<glyph name="lessequal" format="1">
  <advance width="2320"/>
  <unicode hex="2264"/>
  <outline>
    <contour>
      <point x="294" y="15" type="line"/>
      <point x="294" y="159" type="line"/>
      <point x="1416" y="159" type="line"/>
      <point x="1416" y="15" type="line"/>
    </contour>
    <contour>
      <point x="1382" y="259" type="line"/>
      <point x="336" y="787" type="line"/>
      <point x="336" y="882" type="line"/>
      <point x="1382" y="1437" type="line"/>
      <point x="1382" y="1272" type="line"/>
      <point x="541" y="838" type="line"/>
      <point x="1382" y="424" type="line"/>
    </contour>
  </outline>
</glyph>
<glyph name="greaterequal" format="1">
  <advance width="2318"/>
  <unicode hex="2265"/>
  <outline>
    <contour>
      <point x="334" y="1439" type="line"/>
      <point x="1389" y="883" type="line"/>
      <point x="1389" y="789" type="line"/>
      <point x="330" y="261" type="line"/>
      <point x="330" y="427" type="line"/>
      <point x="1180" y="835" type="line"/>
      <point x="334" y="1275" type="line"/>
    </contour>
    <contour>
      <point x="294" y="15" type="line"/>
      <point x="294" y="159" type="line"/>
      <point x="1412" y="159" type="line"/>
      <point x="1412" y="15" type="line"/>
    </contour>
  </outline>
</glyph>
<glyph name="lozenge" format="1">
  <advance width="2138"/>
  <unicode hex="25CA"/>
  <outline>
    <contour>
      <point x="708" y="-79" type="line"/>
      <point x="207" y="808" type="line"/>
      <point x="716" y="1700" type="line"/>
      <point x="829" y="1700" type="line"/>
      <point x="1334" y="809" type="line"/>
      <point x="820" y="-79" type="line"/>
    </contour>
    <contour>
      <point x="764" y="89" type="curve"/>
      <point x="887" y="335"/>
      <point x="1022" y="567"/>
      <point x="1157" y="808" type="curve"/>
      <point x="1026" y="1049"/>
      <point x="895" y="1284"/>
      <point x="775" y="1528" type="curve"/>
      <point x="652" y="1281"/>
      <point x="517" y="1050"/>
      <point x="382" y="811" type="curve"/>
      <point x="513" y="570"/>
      <point x="642" y="333"/>
    </contour>
  </outline>
</glyph>
<glyph name="uniFB01" format="1">
  <advance width="2132"/>
  <unicode hex="FB01"/>
  <outline>
    <contour>
      <point x="1066" y="1535" type="line"/>
      <point x="1066" y="1717" type="line"/>
      <point x="1246" y="1717" type="line"/>
      <point x="1246" y="1535" type="line"/>
    </contour>
    <contour>
      <point x="326" y="0" type="line"/>
      <point x="326" y="1079" type="line"/>
      <point x="89" y="1079" type="line"/>
      <point x="89" y="1205" type="line"/>
      <point x="326" y="1205" type="line"/>
      <point x="327" y="1336" type="line"/>
      <point x="330" y="1594"/>
      <point x="414" y="1778"/>
      <point x="676" y="1778" type="curve" smooth="yes"/>
      <point x="740" y="1778"/>
      <point x="784" y="1765"/>
      <point x="836" y="1754" type="curve"/>
      <point x="838" y="1601" type="line"/>
      <point x="808" y="1613"/>
      <point x="752" y="1619"/>
      <point x="709" y="1619" type="curve" smooth="yes"/>
      <point x="551" y="1619"/>
      <point x="520" y="1523"/>
      <point x="520" y="1365" type="curve" smooth="yes"/>
      <point x="519" y="1205" type="line"/>
      <point x="1251" y="1205" type="line"/>
      <point x="1251" y="0" type="line"/>
      <point x="1057" y="0" type="line"/>
      <point x="1057" y="1079" type="line"/>
      <point x="519" y="1079" type="line"/>
      <point x="519" y="0" type="line"/>
    </contour>
  </outline>
</glyph>
<glyph name="e.alt" format="1">
  <advance width="1840"/>
  <outline>
    <contour>
      <point x="390" y="564" type="curve"/>
      <point x="693" y="616"/>
      <point x="927" y="686"/>
      <point x="927" y="875" type="curve" smooth="yes"/>
      <point x="927" y="982"/>
      <point x="854" y="1061"/>
      <point x="726" y="1061" type="curve" smooth="yes"/>
      <point x="513" y="1061"/>
      <point x="387" y="852"/>
      <point x="387" y="622" type="curve" smooth="yes"/>
      <point x="387" y="603"/>
      <point x="388" y="584"/>
    </contour>
    <contour>
      <point x="720" y="-34" type="curve" smooth="yes"/>
      <point x="440" y="-34"/>
      <point x="176" y="195"/>
      <point x="176" y="595" type="curve" smooth="yes"/>
      <point x="176" y="934"/>
      <point x="382" y="1229"/>
      <point x="724" y="1229" type="curve" smooth="yes"/>
      <point x="957" y="1229"/>
      <point x="1118" y="1066"/>
      <point x="1118" y="870" type="curve" smooth="yes"/>
      <point x="1118" y="583"/>
      <point x="790" y="488"/>
      <point x="403" y="425" type="curve"/>
      <point x="450" y="214"/>
      <point x="586" y="133"/>
      <point x="728" y="133" type="curve" smooth="yes"/>
      <point x="875" y="133"/>
      <point x="1012" y="208"/>
      <point x="1099" y="313" type="curve"/>
      <point x="1197" y="188" type="line"/>
      <point x="1058" y="43"/>
      <point x="900" y="-34"/>
    </contour>
  </outline>
</glyph>
<glyph name="k.alt" format="1">
  <advance width="1171"/>
  <outline>
    <contour>
      <point x="1167" y="195" type="curve"/>
      <point x="1130" y="3" type="line"/>
      <point x="1090" y="-12"/>
      <point x="1049" y="-23"/>
      <point x="1009" y="-23" type="curve" smooth="yes"/>
      <point x="932" y="-23"/>
      <point x="856" y="15"/>
      <point x="780" y="123" type="curve"/>
      <point x="618" y="362" type="line"/>
      <point x="390" y="42" type="line" smooth="yes"/>
      <point x="360" y="-1"/>
      <point x="317" y="-20"/>
      <point x="277" y="-20" type="curve" smooth="yes"/>
      <point x="217" y="-20"/>
      <point x="162" y="24"/>
      <point x="162" y="102" type="curve" smooth="yes"/>
      <point x="162" y="1470" type="line"/>
      <point x="404" y="1470" type="line"/>
      <point x="404" y="389" type="line"/>
      <point x="824" y="1026" type="line"/>
      <point x="1046" y="965" type="line"/>
      <point x="762" y="539" type="line"/>
      <point x="932" y="290" type="line"/>
      <point x="1000" y="203"/>
      <point x="1031" y="176"/>
      <point x="1075" y="176" type="curve" smooth="yes"/>
      <point x="1099" y="176"/>
      <point x="1127" y="184"/>
    </contour>
  </outline>
</glyph>
<glyph name="nine.alt" format="1">
  <advance width="1254"/>
  <outline>
    <contour>
      <point x="656" y="714" type="curve" smooth="yes"/>
      <point x="781" y="714"/>
      <point x="911" y="812"/>
      <point x="911" y="1009" type="curve" smooth="yes"/>
      <point x="911" y="1191"/>
      <point x="780" y="1272"/>
      <point x="652" y="1272" type="curve" smooth="yes"/>
      <point x="525" y="1272"/>
      <point x="388" y="1193"/>
      <point x="388" y="1011" type="curve" smooth="yes"/>
      <point x="388" y="815"/>
      <point x="527" y="714"/>
    </contour>
    <contour>
      <point x="597" y="-119" type="line"/>
      <point x="411" y="-6" type="line"/>
      <point x="709" y="529" type="line"/>
      <point x="698" y="523"/>
      <point x="675" y="523"/>
      <point x="623" y="523" type="curve" smooth="yes"/>
      <point x="367" y="523"/>
      <point x="151" y="731"/>
      <point x="151" y="997" type="curve" smooth="yes"/>
      <point x="151" y="1326"/>
      <point x="413" y="1480"/>
      <point x="643" y="1480" type="curve" smooth="yes"/>
      <point x="874" y="1480"/>
      <point x="1130" y="1321"/>
      <point x="1130" y="992" type="curve" smooth="yes"/>
      <point x="1130" y="867"/>
      <point x="1035" y="649"/>
      <point x="952" y="511" type="curve"/>
    </contour>
  </outline>
</glyph>
